now White and the Huntsmen 2012 TS XviD-26k

 
http://www.imdb.com/title/tt1735898/


Plot:
In a twist to the fairy tale, the Huntsman ordered to take Snow White into the woods 
to be killed winds up becoming her protector and mentor in a quest to vanquish the 
Evil Queen.


Sources - VIDEO: Snow.White.and.the.Huntsman.TS.LD.German.iNTERNAL.XViD-AOE 

....Thanks :P
AUDIO: ADTRG ...Thanks :P



Format : AVI
Format/Info : Audio Video Interleave
File size : 1.37 GiB
Duration : 1h 57mn
Overall bit rate : 1 666 Kbps
Writing library : VirtualDub build 32839/release

Video
ID : 0
Format : MPEG-4 Visual
Format profile : Advanced Simple@L5
Format settings, BVOP : 2
Format settings, QPel : No
Format settings, GMC : No warppoints
Format settings, Matrix : Default (H.263)
Muxing mode : Packed bitstream
Codec ID : XVID
Codec ID/Hint : XviD
Duration : 1h 57mn
Bit rate : 1 526 Kbps
Width : 720 pixels
Height : 320 pixels
Display aspect ratio : 2.25:1
Frame rate : 29.970 fps
Color space : YUV
Chroma subsampling : 4:2:0
Bit depth : 8 bits
Scan type : Progressive
Compression mode : Lossy
Bits/(Pixel*Frame) : 0.221
Stream size : 1.25 GiB (92%)
Writing library : XviD 1.2.1 (UTC 2008-12-04)

Audio
ID : 1
Format : MPEG Audio
Codec ID : 55
Codec ID/Hint : MP3
Duration : 1h 57mn
Bit rate : 128 Kbps
Channel(s) : 2 channels
Sampling rate : 44.1 KHz
Compression mode : Lossy
Stream size : 107 MiB (8%)
Alignment : Split accross interleaves
Interleave, duration : 33 ms (1.00 video frame)
Interleave, preload duration : 500 ms




Notes -
Source is very nice other than a scrolling, pulsing flicker which i reduced as much 

as possible without 
losing video quality.. then it was onto the slight RGB adjustment, brightness and 

contrast then sharpened..
then was onto syncing up ADTRG's very nice LiNE to our encode... had to make a few 

cuts due to them
not removing dupe frames..... will do until R5 or better comes along...... enjoy :P

Enjoy!!